<svg xmlns="http://www.w3.org/2000/svg" width="70" height="100" viewBox="0 0 2623 1497" version="1.1"><path d="" stroke="none" fill="#040484" fill-rule="evenodd"></path><path d="M 1620.500 4.818 C 1609.112 9.786, 1606.221 11.280, 1559.500 36.338 C 1499.246 68.654, 1444.694 92.574, 1403.753 104.630 C 1398.392 106.208, 1394.004 107.958, 1394.003 108.519 C 1394.001 109.079, 1398.532 114.029, 1404.072 119.519 C 1432.124 147.317, 1441.985 170.463, 1441.996 208.530 C 1442.003 233.805, 1437.954 257.999, 1425.850 305 C 1421.955 320.125, 1412.558 357.475, 1404.967 388 C 1377.005 500.448, 1359.407 562.447, 1348.197 588 L 1346.223 592.500 1345.098 589.649 C 1343.064 584.495, 1332.364 546.320, 1318.989 496.500 C 1272.912 324.866, 1270.454 315.905, 1256.316 268 C 1241.046 216.259, 1229.492 185, 1225.638 185 C 1224.908 185, 1223.565 185.823, 1222.655 186.829 C 1219.246 190.596, 1220.865 201.993, 1228.860 230.500 C 1233.471 246.942, 1271.401 383.648, 1306.131 509 C 1313.826 536.775, 1322.807 568.050, 1326.089 578.500 C 1329.370 588.950, 1332.943 601.846, 1334.028 607.157 C 1336.359 618.571, 1336.600 634.509, 1334.585 644 C 1332.669 653.029, 1324.439 671.482, 1321.458 673.435 C 1319.110 674.974, 1319.060 674.935, 1317.955 670.748 C 1317.339 668.412, 1314.593 658.400, 1311.854 648.500 C 1309.115 638.600, 1299.277 602.825, 1289.992 569 C 1280.707 535.175, 1264.508 476.225, 1253.995 438 C 1235.117 369.360, 1212.788 288.123, 1194.356 221.027 C 1189.148 202.066, 1184.718 186.385, 1184.513 186.179 C 1183.301 184.967, 1152.053 183.991, 1145.647 184.964 C 1132.862 186.908, 1131.234 189.210, 1125.078 214.059 C 1122.429 224.752, 1116.850 245.875, 1112.680 261 C 1108.511 276.125, 1101.006 303.350, 1096.003 321.500 C 1079.092 382.847, 1073.163 404.353, 1058.502 457.500 C 1042.768 514.539, 1028.447 566.416, 1023.995 582.500 C 1022.473 588, 1020.966 591.825, 1020.648 591 C 1020.329 590.175, 1017.094 578.925, 1013.458 566 C 1009.822 553.075, 1000.776 521.125, 993.357 495 C 985.938 468.875, 976.489 435.575, 972.361 421 C 968.233 406.425, 957.893 369.975, 949.383 340 C 940.874 310.025, 932.524 280.600, 930.828 274.611 C 928.213 265.382, 927.965 263.599, 929.195 262.911 C 932.658 260.973, 943.503 252.545, 950.734 246.174 C 959.273 238.649, 965.606 230.321, 966.595 225.316 C 967.197 222.264, 967.065 222.103, 963.401 221.415 C 958.694 220.532, 952.372 222.126, 946.726 225.620 C 941.304 228.975, 924.165 246.582, 918.145 254.981 C 913.573 261.360, 913.501 261.580, 913.582 268.981 C 913.647 274.943, 914.515 279.088, 917.773 289 C 922.425 303.152, 922.655 303.961, 953.496 414.500 C 981.396 514.501, 985.975 530.822, 996.657 568.370 C 1007.701 607.186, 1009.224 614.902, 1009.213 632 C 1009.207 642.532, 1008.741 647.259, 1007.092 653.500 C 1004.757 662.340, 996.052 681.480, 994.918 680.268 C 994.522 679.846, 990.346 665.775, 985.638 649 C 980.930 632.225, 974.343 608.825, 970.999 597 C 967.656 585.175, 960.233 558.850, 954.503 538.500 C 939.621 485.640, 914.513 396.605, 910.512 382.500 C 908.640 375.900, 901.217 349.575, 894.015 324 C 886.814 298.425, 879.320 271.823, 877.361 264.885 L 873.800 252.271 887.150 239.320 C 894.493 232.196, 909.837 217.415, 921.250 206.473 C 932.663 195.530, 942 186.222, 942 185.788 C 942 185.355, 885.284 185, 815.965 185 L 689.930 185 691.095 187.250 C 693.433 191.760, 710.077 206.943, 732.134 224.683 C 744.549 234.669, 756.590 245.013, 758.890 247.670 C 765.876 255.737, 770.520 266.569, 775.109 285.500 C 785.172 327.018, 802.248 387.400, 841.990 522 C 880.859 653.642, 905.711 745.005, 916.602 796.294 L 919.319 809.088 916.979 810.728 C 900.478 822.285, 868.711 849.145, 858.951 859.792 L 852.801 866.500 883.651 867.118 C 924.057 867.926, 1087 868.168, 1087 867.419 C 1087 866.160, 1079.553 855.719, 1075.205 850.883 C 1072.674 848.068, 1063.477 839.935, 1054.767 832.810 C 1046.058 825.684, 1037.111 817.551, 1034.886 814.736 C 1025.990 803.482, 1022.631 792.515, 1023.177 776.500 C 1023.505 766.867, 1025.424 759.522, 1075.478 576.327 C 1104.057 471.731, 1127.802 386.377, 1128.245 386.651 C 1129.489 387.420, 1136.054 400.855, 1138.189 407 C 1141.594 416.801, 1143 425.866, 1143 438.015 C 1143 453.352, 1140.920 464.020, 1131.557 496.716 C 1127.495 510.897, 1107.208 583.665, 1086.474 658.422 C 1055.088 771.581, 1048.871 795.045, 1049.349 798.532 C 1051.053 810.963, 1057.627 820.849, 1080.911 846 C 1089.312 855.075, 1099.100 866.100, 1102.662 870.500 C 1109.337 878.746, 1120 894.123, 1120 895.503 C 1120 895.932, 1107.063 895.997, 1091.250 895.646 C 1022.830 894.132, 929.336 893.747, 912 894.909 C 893.789 896.130, 883.754 897.383, 879.629 898.951 L 877.207 899.872 879.576 904.686 C 880.880 907.334, 882.426 910.063, 883.012 910.750 C 884.232 912.179, 1007.166 912.510, 1100.379 911.336 C 1147.911 910.737, 1153.030 910.516, 1152.495 909.086 C 1150.960 904.977, 1143.057 892.240, 1137.117 884.301 C 1133.495 879.460, 1119.942 864.700, 1106.999 851.500 C 1094.056 838.300, 1081.789 825.193, 1079.738 822.373 C 1071.122 810.525, 1067.045 797.151, 1068.759 786.365 C 1069.272 783.139, 1074.736 761.375, 1080.902 738 C 1087.068 714.625, 1094.826 685.150, 1098.141 672.500 C 1116.947 600.738, 1135.269 534.794, 1143.844 508 C 1148.424 493.690, 1153.845 478.161, 1154.985 476.087 C 1155.939 474.352, 1154.596 470.026, 1167.377 516 C 1178.818 557.150, 1209.199 666.301, 1233.345 753 C 1241.846 783.525, 1248.959 809.230, 1249.151 810.123 C 1249.392 811.244, 1241.766 817.744, 1224.515 831.123 C 1199.093 850.838, 1185 863.406, 1185 866.360 C 1185 867.853, 1188.645 868, 1225.750 867.999 C 1248.162 867.999, 1300.557 867.700, 1342.182 867.335 L 1417.865 866.672 1413.209 860.586 C 1405.054 849.927, 1389.947 835.083, 1374.904 822.952 C 1352.944 805.242, 1350.344 800.187, 1351.287 777.039 C 1352.248 753.459, 1358.422 725.879, 1385.878 622.500 C 1435.497 435.675, 1469.776 318.912, 1500.222 233.006 C 1512.439 198.535, 1521.077 177.487, 1532.442 154.500 C 1551.964 115.011, 1567.222 91.106, 1594.676 57 C 1618.618 27.257, 1624.820 19.103, 1630.462 9.953 C 1637.745 -1.861, 1636.856 -2.319, 1620.500 4.818 M 2515.172 14.100 C 2480.648 21.349, 2387.911 52.251, 2212.500 114.959 C 2169.034 130.497, 2156.970 134, 2146.920 134 C 2139.524 134, 2119.923 130.945, 2108.775 128.055 C 2092.055 123.720, 2076.184 118.205, 2039.500 103.983 C 1981.157 81.364, 1886.195 46.032, 1861.947 37.921 C 1838.903 30.213, 1811.206 22.461, 1810.223 23.444 C 1809.951 23.716, 1809.452 75.331, 1809.114 138.145 L 1808.500 252.352 1792.500 257.598 C 1783.700 260.484, 1763.059 267.222, 1746.632 272.572 C 1724.127 279.901, 1715.744 283.076, 1712.632 285.449 L 1708.500 288.599 1707.883 344.869 C 1707.543 375.818, 1707.093 522.496, 1706.883 670.820 L 1706.500 940.500 1720.898 941.258 C 1735.008 942, 1735.517 941.954, 1746.398 938.955 C 1761.427 934.813, 1825.358 913.386, 1876 895.518 C 2107.672 813.778, 2146.293 801.024, 2162.207 801.006 C 2176.437 800.990, 2210.986 811.669, 2387 870.482 C 2480.243 901.639, 2532.258 918.544, 2564 928.010 C 2583.753 933.900, 2610.627 941.042, 2618.100 942.386 L 2621.699 943.034 2622.394 900.767 C 2623.102 857.755, 2623.454 302.121, 2622.775 301.441 C 2622.570 301.237, 2603.108 294.525, 2579.526 286.526 C 2555.945 278.528, 2536.557 271.875, 2536.443 271.742 C 2536.330 271.609, 2535.719 216.150, 2535.087 148.500 C 2534.372 72.038, 2533.548 23.797, 2532.908 21 C 2531.794 16.132, 2528.599 11.957, 2526.076 12.071 C 2525.209 12.110, 2520.303 13.023, 2515.172 14.100 M 1653.376 38.985 C 1646.919 41.592, 1607.191 96.743, 1585.140 133.711 C 1529.281 227.354, 1502.340 306.243, 1415.482 630.500 C 1402.026 680.730, 1389.914 723.607, 1380.028 756 C 1368.282 794.487, 1368.624 797.006, 1388.580 819 C 1393.321 824.225, 1402.667 835.025, 1409.350 843 C 1416.032 850.974, 1425.058 861.324, 1429.407 866 C 1438.666 875.953, 1445.255 884.610, 1448.624 891.250 L 1451.034 896 1329.017 896 C 1245.722 896, 1207 896.328, 1207 897.033 C 1207 898.520, 1211.949 908.183, 1213.769 910.250 C 1215.222 911.900, 1223.006 912, 1350.596 912 C 1425.003 912, 1486.110 911.631, 1486.389 911.179 C 1487.274 909.748, 1476.471 892.896, 1467.684 882 C 1463.027 876.225, 1448.189 860.150, 1434.710 846.279 C 1407.714 818.497, 1401.958 811.533, 1395.761 799.159 C 1388.242 784.147, 1384.877 799.913, 1433.482 622.414 C 1472.922 478.382, 1497.227 392.150, 1509.985 350.994 C 1536.336 265.983, 1560.783 206.298, 1590.434 154.588 C 1601.755 134.847, 1607.364 126.402, 1628.022 98 C 1651.548 65.654, 1660.430 52.056, 1664.082 42.793 L 1665.971 38 1660.735 38.063 C 1657.856 38.098, 1654.544 38.513, 1653.376 38.985 M 2497 44.161 C 2486.731 47.768, 2431.462 66.562, 2347.500 94.997 C 2331.550 100.399, 2305.225 109.322, 2289 114.825 C 2272.775 120.328, 2241.275 131.004, 2219 138.550 C 2196.725 146.096, 2178.134 152.597, 2177.687 152.998 C 2172.591 157.562, 2406.011 235.220, 2496.058 258.918 L 2511 262.851 2511 151.425 C 2511 62.919, 2510.743 40.013, 2509.750 40.061 C 2509.063 40.095, 2503.325 41.940, 2497 44.161 M 2123 173.725 C 2112.275 177.221, 2085.725 185.947, 2064 193.116 C 1986.559 218.673, 1942.483 233.190, 1868.500 257.504 C 1827.250 271.060, 1779.213 286.876, 1761.750 292.650 L 1730 303.147 1730 609.180 C 1730 853.590, 1730.252 915.120, 1731.250 914.746 C 1733.576 913.875, 1868.415 869.705, 2096.836 794.990 C 2121.771 786.834, 2142.360 779.974, 2142.588 779.745 C 2142.816 779.517, 2142.890 641.639, 2142.752 473.350 L 2142.500 167.370 2123 173.725 M 268 183.029 C 218.015 190.349, 168.442 212.264, 126 245.802 C 112.888 256.164, 86.296 283.174, 75.705 296.890 C 39.701 343.514, 16.033 398.396, 5.579 459.500 C 1.281 484.621, 0.786 493.087, 1.251 533.500 C 1.628 566.266, 1.991 573.428, 3.885 585.500 C 15.835 661.688, 45.625 725.945, 92.987 777.697 C 116.690 803.596, 155.158 832.776, 179.459 843.290 C 213.347 857.952, 273.138 866.921, 357.500 869.997 C 391.423 871.233, 478.176 871.249, 530 870.027 C 551.725 869.515, 583.128 868.785, 599.785 868.405 C 616.443 868.024, 629.943 867.404, 629.785 867.027 C 629.628 866.650, 615.438 853.625, 598.250 838.083 L 567 809.825 566.750 695.163 C 566.426 546.544, 566.263 557.674, 568.859 550.939 C 571.881 543.098, 576.937 537.540, 604.282 512 C 625.371 492.303, 628.842 488.629, 632.145 482.509 C 634.221 478.665, 635.600 475.250, 635.209 474.922 C 634.819 474.594, 603.450 474.664, 565.500 475.078 C 383.879 477.060, 263.253 475.475, 258.673 471.046 C 257.625 470.032, 263.451 463.327, 266.898 461.579 C 268.329 460.853, 271.744 459.933, 274.487 459.533 C 285.615 457.912, 288.850 453.151, 289.735 437.092 C 290.376 425.454, 288.700 418.514, 283.652 411.902 C 273.083 398.061, 249.070 396.709, 230.310 408.898 C 216.492 417.876, 208 433.051, 208 448.763 C 208 463.067, 215.448 481.738, 224.213 489.405 C 237.289 500.844, 260.323 508.265, 294.500 512.051 C 317.844 514.637, 384.257 514.345, 447.750 511.378 L 461 510.759 461 524.742 L 461 538.726 421.750 539.613 C 369.565 540.792, 328.310 540.603, 313 539.114 C 285.677 536.456, 262.076 531.022, 241.103 522.560 C 234.834 520.030, 229.517 518.149, 229.287 518.380 C 228.471 519.196, 231.187 527.337, 233.497 530.995 C 242.767 545.680, 269.137 554.772, 312.038 558.076 C 331.324 559.561, 393.065 558.765, 432.384 556.524 C 447.721 555.650, 460.397 555.063, 460.553 555.219 C 460.709 555.376, 460.577 617.328, 460.260 692.891 L 459.684 830.279 416.592 829.685 C 372.852 829.083, 356.249 828.247, 332 825.430 C 276.184 818.945, 236.694 802.610, 205.813 773.232 C 163.376 732.863, 137.394 671.333, 126.751 586.008 C 124.817 570.494, 124.565 563.602, 124.544 525.500 C 124.519 479.018, 125.550 465.116, 131.572 430.789 C 145.733 350.056, 180.163 290.434, 232.112 256.686 C 277.917 226.929, 335.663 219.464, 387 236.662 C 413.960 245.694, 435.514 260.110, 453.998 281.471 C 476.010 306.909, 481.211 319.412, 499.052 389.769 C 499.787 392.667, 500.781 394.906, 501.261 394.746 C 502.155 394.448, 598.194 208.861, 597.707 208.374 C 597.559 208.226, 592.052 209.172, 585.469 210.476 C 565.372 214.459, 553.761 215.504, 530.500 215.426 C 496.914 215.313, 476.311 212.172, 416.847 198.101 C 356.763 183.882, 337.012 180.944, 302.557 181.099 C 286.855 181.170, 276.898 181.726, 268 183.029 M 612.118 241.425 C 605.295 256.812, 594.191 278.627, 579.503 305.500 C 550.970 357.706, 535.840 390.124, 532.616 405.965 C 531.780 410.071, 531.202 413.536, 531.332 413.665 C 531.461 413.794, 534.146 413.634, 537.299 413.309 L 543.031 412.717 548.592 402.109 C 558.412 383.379, 629.938 234.507, 629.206 234.323 C 628.818 234.225, 625.620 233.966, 622.099 233.748 L 615.699 233.351 612.118 241.425 M 313.870 254.539 C 278.016 260.125, 250.531 274.407, 227.195 299.575 C 191.421 338.159, 168.921 396.502, 159.350 475.500 C 157.882 487.617, 157.535 497.899, 157.546 529 C 157.559 570.108, 158.318 580.552, 163.594 612.293 C 176.636 690.752, 206.480 752.279, 246.745 783.720 C 255.357 790.444, 269.391 799, 271.810 799 C 273.897 799, 268.150 792.209, 251.327 774.792 C 229.548 752.245, 219.568 738.696, 209.976 718.650 C 199.823 697.434, 192.418 674.165, 185.992 643.288 C 173.517 583.350, 171.046 510.139, 179.551 452.500 C 185.032 415.357, 194.773 382.396, 208.218 355.500 C 231.537 308.849, 263.595 282.478, 311 270.949 C 323.563 267.893, 348 267.592, 361 270.333 C 381.587 274.673, 401.088 282.853, 434 300.955 C 446.199 307.664, 456.427 312.906, 456.730 312.603 C 457.613 311.721, 449.213 301.062, 442.069 294 C 420.876 273.049, 390.468 258.494, 358.678 254.085 C 348.219 252.634, 324.552 252.874, 313.870 254.539 M 2364.086 342.250 C 2363.302 344.292, 2345.056 388.778, 2262.472 590 C 2236.244 653.905, 2235.264 656.532, 2237.336 657.309 C 2240.561 658.519, 2294.780 674, 2295.792 674 C 2296.272 674, 2297.141 672.538, 2297.724 670.750 C 2299.104 666.518, 2320.142 611.611, 2320.564 611.140 C 2321.097 610.545, 2341.340 614.914, 2352.794 618.097 C 2374.185 624.040, 2427.649 641.328, 2433.465 644.184 C 2445.368 650.026, 2453.334 658.968, 2456.911 670.500 C 2457.934 673.800, 2459.522 682.125, 2460.440 689 C 2462.545 704.773, 2463.553 709.250, 2466.430 715.586 C 2471.888 727.608, 2481.801 733.159, 2512 741.109 C 2518.325 742.774, 2524.287 744.361, 2525.250 744.635 C 2526.263 744.924, 2527 744.598, 2527 743.859 C 2527 743.158, 2512.614 689.240, 2495.032 624.042 C 2477.449 558.844, 2454.161 472.470, 2443.281 432.099 L 2423.499 358.699 2417.698 355.487 C 2409.909 351.174, 2393.098 345.569, 2378.767 342.507 C 2364.552 339.470, 2365.150 339.480, 2364.086 342.250 M 1939 358.534 C 1934.325 359.271, 1921.275 361.707, 1910 363.948 C 1898.725 366.189, 1884.406 368.568, 1878.181 369.236 L 1866.862 370.449 1867.514 373.974 C 1868.763 380.723, 1872.175 389.425, 1875.590 394.569 C 1882.512 404.997, 1892.810 409.283, 1911 409.304 C 1924.969 409.320, 1934.238 407.082, 1947.604 400.464 C 1959.769 394.440, 1967.799 387.125, 1972.450 377.827 C 1976.014 370.704, 1976.867 365.488, 1975.029 362.055 C 1972.393 357.129, 1957.278 355.652, 1939 358.534 M 2033 404.971 C 2016.966 410.187, 2011.670 412.304, 1983.327 424.836 C 1944.215 442.129, 1934.137 445.854, 1903 454.527 C 1845.863 470.443, 1835.961 473.414, 1820.720 479.210 L 1812.941 482.168 1813.554 485.834 C 1816.539 503.696, 1822.674 508.500, 1842.500 508.500 C 1853.116 508.500, 1853.762 508.373, 1861 504.856 C 1865.125 502.851, 1875.025 497.104, 1883 492.085 C 1909.615 475.333, 1931.001 466.124, 1956.251 460.540 C 1969.140 457.690, 1988.544 455.211, 1989.611 456.278 C 1990.678 457.345, 1981.358 479.860, 1971.925 499 C 1955.170 532.999, 1935.115 567.149, 1907.911 608 C 1876.949 654.497, 1858.156 679.270, 1829.019 712 C 1818.982 723.275, 1807.446 736.775, 1803.384 742 L 1795.998 751.500 1799.491 751.810 C 1804.118 752.220, 1814.205 749.597, 1820.868 746.250 C 1823.820 744.767, 1828.770 741.067, 1831.868 738.027 C 1834.965 734.987, 1857.114 708.875, 1881.088 680 C 1911.484 643.389, 1928.251 622.282, 1936.490 610.260 C 1942.988 600.778, 1950.722 590.089, 1953.677 586.507 L 1959.049 579.994 1962.513 581.441 C 1967.507 583.528, 1977.374 590.075, 1994.564 602.711 C 2022.862 623.511, 2039.729 633.978, 2057.611 641.835 C 2072.583 648.413, 2095.042 655.291, 2096.568 653.765 C 2096.874 653.459, 2096.191 649.276, 2095.049 644.469 C 2091.121 627.930, 2083.137 617.268, 2069.720 610.645 C 2065.749 608.684, 2052.825 603.857, 2041 599.919 C 2029.175 595.980, 2013.922 590.351, 2007.105 587.410 C 1994.548 581.993, 1976.018 572.175, 1971.376 568.480 L 1968.838 566.459 1971.987 558.480 C 1976.452 547.166, 1984.301 532.758, 1999.489 508 C 2024.535 467.170, 2032.218 452.531, 2038.478 433.711 C 2042.404 421.910, 2045.284 408.519, 2044.821 404.214 L 2044.500 401.231 2033 404.971 M 2368.094 498.061 C 2355.228 527.747, 2344.881 552.177, 2345.101 552.349 C 2345.694 552.816, 2426.464 575.818, 2426.717 575.593 C 2426.836 575.486, 2421.595 555.172, 2415.069 530.450 C 2408.544 505.727, 2400.843 476.500, 2397.956 465.500 C 2395.069 454.500, 2392.433 445.182, 2392.097 444.793 C 2391.761 444.404, 2380.960 468.375, 2368.094 498.061 M 645.905 502.123 C 642.382 504.390, 634.550 511.254, 628.500 517.376 C 612.685 533.379, 600.778 549.699, 595.433 562.698 L 593.047 568.500 593.024 686.145 C 593.001 800.276, 593.059 803.979, 594.964 810.145 C 598.905 822.900, 607.152 833.919, 631.619 859.119 C 649.065 877.087, 662.527 893.849, 660.831 895.492 C 660.649 895.669, 576.575 895.918, 474 896.047 C 266.848 896.307, 282.758 896.764, 246 889.504 C 221.771 884.718, 206.581 882.086, 206.081 882.586 C 205.264 883.403, 210.563 888.326, 216.280 892.061 C 231.755 902.173, 258.668 909.066, 296 912.479 C 325.252 915.153, 379.216 914.825, 465 911.451 C 497.334 910.179, 521.715 910.025, 599.384 910.600 C 667.275 911.103, 694.158 910.995, 693.884 910.221 C 693.344 908.699, 628.941 833.019, 620.859 824.410 C 617.199 820.510, 613.145 815.335, 611.852 812.910 L 609.500 808.500 609.500 686 L 609.500 563.500 612.347 557.702 C 615.882 550.502, 623.272 542.447, 637.500 530.283 C 650.816 518.900, 655.516 513.369, 657.472 506.782 C 660.330 497.160, 656.200 495.496, 645.905 502.123 M 2357.664 944.845 C 2357.480 945.205, 2362.198 954.725, 2368.149 966 C 2374.101 977.275, 2378.977 987.034, 2378.985 987.688 C 2379.008 989.510, 2354.452 1004.171, 2335.786 1013.479 C 2245.469 1058.518, 2139.654 1068.190, 2036 1040.882 C 2007.872 1033.472, 1997.059 1029.291, 1960 1011.502 C 1923.568 994.014, 1904.544 986.894, 1898.385 988.439 C 1895.468 989.172, 1890.583 998.203, 1891.382 1001.386 C 1892.239 1004.801, 1897.744 1009.352, 1908.409 1015.464 C 1936.410 1031.511, 1965.218 1043.873, 2003.500 1056.270 C 2098.328 1086.979, 2183.905 1088.932, 2274.977 1062.466 C 2299.246 1055.414, 2309.461 1051.233, 2347.072 1032.959 C 2378.739 1017.573, 2391.789 1011.751, 2392.973 1012.483 C 2393.406 1012.751, 2398.813 1019.951, 2404.989 1028.485 C 2411.165 1037.018, 2416.569 1044, 2416.997 1044 C 2417.425 1044, 2420.491 1036.237, 2423.809 1026.750 C 2427.128 1017.263, 2434.371 996.705, 2439.905 981.067 C 2445.439 965.429, 2449.862 952.555, 2449.734 952.460 C 2449.506 952.291, 2434.295 950.935, 2388 946.956 C 2375.625 945.893, 2363.813 944.836, 2361.750 944.607 C 2359.688 944.378, 2357.849 944.485, 2357.664 944.845 M 375 1197 L 375 1388 486.371 1388 L 597.743 1388 599.016 1378.379 C 600.276 1368.860, 599.909 1342.576, 598.497 1341.163 C 598.132 1340.799, 559.621 1340.340, 512.917 1340.145 L 428 1339.790 428 1172.895 L 428 1006 401.500 1006 L 375 1006 375 1197 M 2219.585 1105.120 C 2211.355 1115.815, 2208.408 1118.982, 2207.150 1118.484 C 2202.679 1116.716, 2174.198 1109.958, 2164.500 1108.365 C 2149.113 1105.837, 2122.480 1105.838, 2111.500 1108.367 C 2081.892 1115.187, 2059.814 1132.848, 2046.531 1160.340 C 2032.098 1190.214, 2032.956 1228.749, 2048.772 1260.942 C 2053.323 1270.207, 2060.895 1278.418, 2076 1290.472 C 2088.577 1300.508, 2091.136 1303, 2088.865 1303 C 2088.107 1303, 2082.855 1305.272, 2077.195 1308.049 C 2055.141 1318.868, 2042.886 1336.579, 2046.020 1353.103 C 2048.877 1368.169, 2061.877 1379.811, 2081.856 1385.197 C 2093.958 1388.458, 2113.059 1388.091, 2140 1384.079 C 2176.722 1378.609, 2190.887 1378.838, 2201.809 1385.076 C 2211.265 1390.476, 2215.952 1400.367, 2216.752 1416.613 L 2217.250 1426.725 2207.332 1433.328 C 2195.258 1441.366, 2180.884 1448.300, 2170.354 1451.167 C 2164.184 1452.846, 2159.712 1453.300, 2149.500 1453.284 C 2129.789 1453.253, 2116.074 1449.139, 2083.097 1433.367 C 2074.625 1429.315, 2067.375 1426, 2066.985 1426 C 2064.821 1426, 2048.826 1449.473, 2045.430 1457.634 L 2042.988 1463.500 2048.401 1468.519 C 2062.045 1481.168, 2087.126 1491.264, 2115.297 1495.447 C 2129.091 1497.495, 2156.907 1497.490, 2170.872 1495.438 C 2232.882 1486.322, 2267.960 1455.432, 2267.993 1409.910 C 2268.013 1382.636, 2253.167 1358.154, 2229.322 1346.138 C 2222.260 1342.579, 2208.963 1339.240, 2197.152 1338.059 C 2184.405 1336.785, 2170.220 1337.641, 2145.500 1341.178 C 2135.709 1342.579, 2125.291 1343.339, 2115.500 1343.367 C 2102.437 1343.406, 2099.730 1343.127, 2094.536 1341.206 C 2091.256 1339.993, 2087.965 1338.394, 2087.223 1337.652 C 2084.076 1334.505, 2095.153 1326.618, 2109 1322.147 C 2112.575 1320.993, 2125.788 1317.751, 2138.362 1314.944 C 2176.756 1306.372, 2194.459 1300.623, 2210.315 1291.579 C 2227.152 1281.974, 2237.880 1270.829, 2245.042 1255.500 C 2251.215 1242.288, 2252.442 1235.865, 2252.395 1217 C 2252.346 1196.947, 2249.874 1183.641, 2241.468 1158.180 C 2238.461 1149.070, 2236 1141.485, 2236 1141.325 C 2236 1141.165, 2238.340 1139.848, 2241.200 1138.399 C 2249.616 1134.134, 2253.449 1131.242, 2257.837 1125.848 L 2261.972 1120.766 2250.236 1109.565 C 2243.781 1103.405, 2236.671 1096.731, 2234.435 1094.734 L 2230.371 1091.102 2219.585 1105.120 M 1381.119 1105.500 C 1373.867 1112.375, 1367.611 1117.992, 1367.217 1117.982 C 1366.822 1117.971, 1361.613 1116.403, 1355.639 1114.496 C 1312.314 1100.666, 1269.321 1104.191, 1239.990 1123.978 C 1231.609 1129.631, 1219.969 1140.844, 1214.372 1148.654 C 1204.305 1162.701, 1199.105 1179.811, 1198.272 1201.623 C 1197.433 1223.602, 1200.648 1241.095, 1208.541 1257.500 C 1213.606 1268.028, 1218.717 1274.121, 1231.320 1284.658 C 1236.369 1288.880, 1242.395 1294.134, 1244.710 1296.336 C 1249.707 1301.086, 1250.543 1300.028, 1233.952 1309.940 C 1221.442 1317.413, 1215.123 1323.333, 1211.661 1330.824 C 1209.861 1334.720, 1209.500 1337.336, 1209.500 1346.500 C 1209.500 1356.462, 1209.758 1358.026, 1212.236 1363.071 C 1218.071 1374.952, 1230.482 1383.360, 1246.973 1386.605 C 1257.352 1388.647, 1273.060 1388.105, 1293 1385.019 C 1320.585 1380.748, 1330.327 1379.792, 1340.500 1380.354 C 1359.741 1381.418, 1372.440 1387.512, 1378.313 1398.500 C 1381.525 1404.508, 1381.237 1414.682, 1377.643 1422.180 C 1374.383 1428.983, 1366.420 1437.262, 1358.754 1441.821 C 1343.122 1451.116, 1314.553 1455.328, 1292.881 1451.532 C 1281.194 1449.485, 1273.154 1446.553, 1252.457 1436.788 C 1228.466 1425.468, 1228.188 1425.364, 1226.549 1427.101 C 1223.255 1430.592, 1203.925 1462.361, 1204.377 1463.540 C 1204.656 1464.267, 1207.219 1466.707, 1210.072 1468.963 C 1225.157 1480.887, 1246.948 1489.780, 1273 1494.644 C 1286.446 1497.155, 1324.446 1497.167, 1338 1494.664 C 1376.543 1487.549, 1403.456 1473.149, 1417.005 1452.394 C 1425.330 1439.642, 1430.969 1417.372, 1429.513 1403 C 1427.687 1384.976, 1422.086 1373.050, 1409.525 1360.438 C 1396.662 1347.523, 1385.011 1341.957, 1363.558 1338.477 C 1350.243 1336.318, 1338.420 1336.655, 1310.500 1339.990 C 1285.625 1342.962, 1263.573 1343.792, 1253 1342.155 L 1248.500 1341.458 1248.754 1336.614 C 1249.068 1330.625, 1252.041 1323.672, 1255.156 1321.640 C 1258.844 1319.235, 1264.750 1318.237, 1291.500 1315.495 C 1305.250 1314.086, 1320.212 1312.259, 1324.748 1311.435 C 1378.736 1301.626, 1410.268 1269.637, 1413.570 1221.322 C 1414.849 1202.600, 1410.448 1177.868, 1401.942 1155.983 C 1399.701 1150.218, 1397.682 1144.825, 1397.455 1144 C 1397.188 1143.028, 1401.788 1138.696, 1410.521 1131.696 C 1417.935 1125.753, 1424 1120.502, 1424 1120.025 C 1424 1119.053, 1396.018 1093, 1394.973 1093 C 1394.605 1093, 1388.370 1098.625, 1381.119 1105.500 M 1039.500 1102.651 C 1025.287 1104.942, 1008.003 1111.849, 995.879 1120.082 C 992.373 1122.463, 985.659 1128.118, 980.960 1132.648 C 974.584 1138.794, 972.173 1140.563, 971.458 1139.618 C 966.666 1133.287, 961.695 1124.743, 959.575 1119.196 C 958.124 1115.399, 956.033 1111.841, 954.756 1110.998 C 953.062 1109.878, 948.579 1109.422, 936.750 1109.165 L 921 1108.824 921 1248.412 L 921 1388 944.873 1388 L 968.746 1388 969.367 1361.250 C 969.709 1346.537, 970.276 1298.601, 970.627 1254.725 L 971.266 1174.950 979.565 1169.428 C 1009.664 1149.401, 1040.603 1141.566, 1060.282 1148.987 C 1086.216 1158.767, 1094.208 1186.447, 1092.625 1261 C 1090.787 1347.523, 1090.740 1354.791, 1091.915 1369.316 C 1092.574 1377.464, 1093.344 1384.733, 1093.626 1385.467 C 1094.396 1387.475, 1098.642 1387.904, 1120 1388.128 L 1139.500 1388.334 1140.667 1380.417 C 1145.886 1344.996, 1144.623 1236.115, 1138.428 1187.500 C 1134.443 1156.227, 1129.351 1142.931, 1115.817 1128.464 C 1108.328 1120.458, 1102.488 1116.127, 1092.367 1111.072 C 1080.517 1105.154, 1070.834 1102.904, 1055.500 1102.505 C 1048.350 1102.319, 1041.150 1102.385, 1039.500 1102.651 M 713 1103.629 C 690.659 1106.421, 667.618 1114.419, 652.500 1124.630 C 642.691 1131.255, 642.864 1128.390, 650.987 1149.760 C 654.938 1160.153, 658.549 1169.270, 659.012 1170.020 C 659.678 1171.097, 662.762 1169.996, 673.677 1164.785 C 700.425 1152.017, 714.595 1148.437, 735 1149.292 C 771.960 1150.841, 789.029 1167.529, 791.639 1204.669 L 792.303 1214.114 789.902 1213.566 C 775.028 1210.173, 744.552 1209.104, 727.420 1211.375 C 705.858 1214.233, 685.547 1221.533, 669.780 1232.090 C 660.399 1238.370, 646.306 1253.226, 640.878 1262.556 C 630.929 1279.657, 627.612 1291.860, 627.576 1311.500 C 627.555 1322.986, 627.958 1327.011, 629.824 1333.912 C 636.117 1357.193, 650.119 1374.600, 670.500 1384.480 C 685.115 1391.564, 694.380 1393.460, 714.500 1393.481 C 741.441 1393.511, 748.200 1390.986, 789.073 1365.627 L 796.646 1360.928 806.073 1370.266 C 812.860 1376.988, 817.534 1380.656, 822.761 1383.362 C 831.262 1387.762, 845.113 1391.483, 856.750 1392.493 L 865 1393.208 865 1383.653 C 865 1369.380, 863.739 1364.755, 858.992 1361.613 C 851.504 1356.658, 845.593 1342.851, 844.073 1326.764 C 843.458 1320.258, 843.429 1300.995, 843.994 1274.150 C 845.484 1203.340, 842.685 1177.260, 831.045 1153.500 C 819.418 1129.768, 795.051 1113.245, 760.777 1105.855 C 751.712 1103.900, 721.935 1102.513, 713 1103.629 M 2409.500 1104.523 C 2374.508 1110.966, 2346.668 1130.014, 2325.051 1162.302 C 2292.856 1210.390, 2290.375 1280.920, 2319.143 1330.237 C 2335.104 1357.598, 2360.283 1378.212, 2388.321 1386.872 C 2412.843 1394.446, 2444.436 1395.589, 2470.908 1389.859 C 2481.529 1387.560, 2497.888 1382.088, 2505.447 1378.306 C 2511.556 1375.249, 2526.208 1365.659, 2527.919 1363.597 C 2528.929 1362.381, 2527.770 1359.174, 2521.491 1345.807 C 2517.279 1336.838, 2513.522 1329.175, 2513.144 1328.778 C 2512.766 1328.381, 2505.413 1331.190, 2496.805 1335.021 C 2469.950 1346.973, 2455.571 1350.930, 2439 1350.930 C 2415.213 1350.930, 2392.029 1341.406, 2377.184 1325.538 C 2364.096 1311.547, 2355.635 1289.049, 2353.406 1262.311 L 2352.739 1254.323 2401.120 1253.627 C 2430.322 1253.207, 2465.848 1253.370, 2490.743 1254.038 C 2521.537 1254.864, 2533.378 1254.856, 2537.483 1254.004 C 2545.377 1252.365, 2551.862 1247.678, 2555.477 1241 C 2558.168 1236.029, 2558.489 1234.441, 2558.813 1224.500 C 2559.213 1212.189, 2557.315 1200.768, 2551.999 1183.498 C 2544.217 1158.216, 2530.798 1140.373, 2508.606 1125.796 C 2493.862 1116.112, 2479.650 1110.148, 2461.089 1105.857 C 2449.420 1103.158, 2420.913 1102.421, 2409.500 1104.523 M 1850.498 1105.478 C 1829.822 1108.122, 1807.547 1113.941, 1787 1122.068 C 1780.125 1124.787, 1773.884 1127.406, 1773.131 1127.888 C 1772.040 1128.587, 1773.523 1132.900, 1780.433 1149.132 C 1785.201 1160.335, 1789.461 1169.859, 1789.899 1170.298 C 1790.337 1170.737, 1796.739 1168.654, 1804.125 1165.670 C 1834.693 1153.318, 1851.325 1149.017, 1868.500 1149.021 C 1885.682 1149.025, 1895.437 1152.485, 1904.702 1161.860 C 1913.710 1170.974, 1919.828 1186.503, 1921.805 1205.275 L 1922.624 1213.049 1915.062 1212.275 C 1899.985 1210.730, 1868.476 1211.534, 1855 1213.807 C 1821.681 1219.428, 1799.661 1229.426, 1781.898 1247 C 1768.983 1259.777, 1762.175 1271.961, 1758.225 1289.365 C 1755.992 1299.205, 1756.050 1322.088, 1758.332 1331.353 C 1765.295 1359.634, 1782.827 1378.963, 1809.649 1387.929 C 1821.264 1391.812, 1829.007 1392.983, 1843.119 1392.992 C 1872.373 1393.011, 1900.276 1382.601, 1920.058 1364.285 L 1925.929 1358.850 1928.833 1362.175 C 1930.430 1364.004, 1934.436 1368.905, 1937.735 1373.068 C 1949.898 1388.410, 1954.604 1390.315, 1985.907 1392.562 L 1995.313 1393.237 1994.668 1384.837 C 1993.733 1372.684, 1991.714 1366.871, 1986.315 1360.792 C 1983.786 1357.944, 1980.859 1353.674, 1979.809 1351.302 C 1974.394 1339.059, 1972.882 1316.142, 1973.228 1251.500 C 1973.525 1195.888, 1973.096 1189.909, 1967.411 1170.289 C 1957.315 1135.449, 1934.699 1114.323, 1899.500 1106.850 C 1887.398 1104.281, 1864.809 1103.649, 1850.498 1105.478 M 1654.416 1177.298 C 1655.340 1267.495, 1653.771 1296.174, 1646.908 1314.516 C 1642.307 1326.814, 1625.944 1339.552, 1605.500 1346.750 C 1595.858 1350.145, 1575.254 1351.088, 1566.476 1348.536 C 1557.442 1345.910, 1551.975 1342.725, 1546.433 1336.859 C 1540.623 1330.710, 1536.991 1324.850, 1534.125 1317 C 1525.647 1293.785, 1523.956 1266.596, 1525.950 1185.509 C 1526.626 1158.014, 1526.860 1129.551, 1526.469 1122.259 L 1525.759 1109 1501.536 1109 L 1477.313 1109 1476.647 1124.750 C 1476.281 1133.412, 1475.704 1160.300, 1475.365 1184.500 C 1474.205 1267.306, 1478.389 1324.857, 1487.143 1346.508 C 1496.412 1369.434, 1517.716 1386.032, 1544.959 1391.552 C 1557.197 1394.032, 1578.945 1393.151, 1592.107 1389.642 C 1611.341 1384.514, 1631.639 1373.469, 1645.327 1360.682 C 1648.532 1357.688, 1651.315 1355.747, 1651.511 1356.369 C 1651.708 1356.991, 1652.635 1364.362, 1653.572 1372.750 L 1655.275 1388 1678.520 1388 L 1701.765 1388 1702.367 1347.750 C 1702.698 1325.612, 1703.238 1263.111, 1703.569 1208.858 L 1704.169 1110.216 1689.335 1109.610 C 1681.176 1109.276, 1669.821 1108.799, 1664.103 1108.549 L 1653.706 1108.096 1654.416 1177.298 M 1303.763 1145.033 C 1291.654 1147.072, 1274.633 1155.118, 1265.828 1162.965 C 1254.585 1172.986, 1250.076 1183.366, 1249.305 1201 C 1247.217 1248.737, 1278.186 1279.974, 1319.185 1271.485 C 1330.154 1269.214, 1337.782 1265.057, 1344.855 1257.496 C 1356.040 1245.539, 1361.289 1230.599, 1361.367 1210.500 C 1361.427 1195.318, 1359.330 1185.588, 1353.292 1173.026 C 1342.924 1151.457, 1325.178 1141.427, 1303.763 1145.033 M 2138.500 1145.627 C 2123.220 1149.451, 2111.424 1155.553, 2103 1163.990 C 2092.196 1174.811, 2088 1186.228, 2088 1204.806 C 2088 1223.832, 2091.517 1236.726, 2099.999 1248.805 C 2113.399 1267.885, 2134.987 1276.392, 2157.303 1271.385 C 2168.470 1268.880, 2174.658 1265.500, 2182.583 1257.580 C 2190.779 1249.388, 2194.921 1241.782, 2198.120 1229.050 C 2200.970 1217.709, 2200.434 1197.237, 2197.006 1186.500 C 2191.229 1168.407, 2181.521 1155.838, 2168.262 1149.285 C 2161.171 1145.780, 2160.032 1145.525, 2150.591 1145.332 C 2145.041 1145.219, 2139.600 1145.351, 2138.500 1145.627 M 2424.925 1145.920 C 2396.599 1149.880, 2372.176 1168.578, 2360.989 1194.867 C 2358.161 1201.513, 2354.379 1214.750, 2355.119 1215.412 C 2355.329 1215.600, 2389.566 1216.078, 2431.203 1216.474 L 2506.906 1217.196 2506.348 1213.348 C 2500.456 1172.692, 2475.455 1147.728, 2438.500 1145.601 C 2434.100 1145.347, 2427.991 1145.491, 2424.925 1145.920 M 1876.520 1249.115 C 1859.553 1251.586, 1840.298 1259.304, 1828.159 1268.502 C 1806.865 1284.636, 1798.781 1308.183, 1807.944 1327.383 C 1814.116 1340.316, 1825.290 1349.258, 1838.777 1352.058 C 1847.195 1353.805, 1868.692 1352.725, 1877.500 1350.112 C 1889.910 1346.431, 1900.804 1340.370, 1908.110 1333.081 C 1921.890 1319.334, 1924.991 1306.958, 1923.518 1271.592 C 1922.996 1259.075, 1922.395 1253.538, 1921.455 1252.598 C 1918.095 1249.238, 1890.411 1247.092, 1876.520 1249.115 M 749 1250.046 C 724.074 1253.134, 704.316 1261.615, 690.978 1274.953 C 672.267 1293.664, 669.776 1320.653, 685.204 1337.533 C 691.311 1344.214, 697.054 1347.729, 705.856 1350.170 C 726.412 1355.870, 755.398 1348.103, 783.615 1329.335 L 791.731 1323.937 792.468 1287.404 C 792.873 1267.311, 792.968 1250.634, 792.677 1250.344 C 791.687 1249.354, 756.522 1249.114, 749 1250.046" stroke="none" fill="#04047c" fill-rule="evenodd"></path></svg>