<svg xmlns="http://www.w3.org/2000/svg" width="150" height="160" viewBox="0 0 7719 542" version="1.1"><path d="" stroke="none" fill="#040484" fill-rule="evenodd"></path><path d="M 569 10.702 C 544.385 23.510, 528.770 30.685, 516 35.057 C 510.775 36.845, 506.118 38.644, 505.650 39.054 C 505.183 39.464, 507.366 42.591, 510.502 46.003 C 513.639 49.414, 517.396 54.746, 518.852 57.853 C 521.328 63.133, 521.493 64.378, 521.400 77 L 521.300 90.500 511.597 129 C 500.489 173.079, 496.417 188.007, 491.277 203.500 L 487.627 214.500 486.278 210 C 485.536 207.525, 479.966 187.050, 473.901 164.500 C 457.802 104.639, 450.188 78.818, 445.961 69.750 C 444.199 65.970, 442 66.197, 442 70.158 C 442 71.895, 450.618 104.182, 461.152 141.908 C 486.270 231.870, 484.602 225.123, 483.264 231.361 C 481.939 237.537, 479.120 244.453, 478.273 243.606 C 477.937 243.270, 466.796 203.509, 453.515 155.248 L 429.368 67.500 420.793 67.213 C 410.921 66.882, 409.678 67.571, 408.009 74.295 C 405.380 84.889, 370.723 210.632, 370.148 211.663 C 369.792 212.303, 362.027 186.428, 352.893 154.163 C 336.373 95.809, 336.297 95.493, 338.393 94.103 C 342.723 91.234, 350 83.512, 350 81.788 C 350 77.395, 342.203 80.698, 336.004 87.716 C 329.550 95.023, 329.485 95.558, 333.427 108.851 C 336.970 120.799, 359.761 201.936, 363.103 214.500 C 365.744 224.427, 365.586 235.178, 362.707 241.402 L 360.439 246.303 338.621 168.970 L 316.803 91.636 328.901 79.651 C 335.556 73.059, 341 67.516, 341 67.333 C 341 67.150, 320.503 67, 295.450 67 C 252.373 67, 249.952 67.095, 250.855 68.750 C 251.380 69.712, 256.906 74.790, 263.137 80.033 C 269.367 85.276, 275.447 91.024, 276.648 92.806 C 277.849 94.587, 279.740 99.992, 280.851 104.817 C 282.720 112.933, 288.235 132.314, 313.386 219.151 C 321.680 247.787, 331.261 284.241, 332.186 290.688 C 332.425 292.351, 331.065 293.990, 326.516 297.525 C 320.253 302.393, 313.825 308.172, 310.595 311.838 L 308.690 314 351.413 314 L 394.136 314 391.975 310.965 C 390.787 309.296, 386.778 305.359, 383.068 302.215 C 373.875 294.427, 371.708 291.116, 371.199 284.073 C 370.834 279.028, 373.071 269.933, 389.642 209.085 L 408.500 139.838 411 145.169 C 413.099 149.645, 413.481 151.864, 413.380 159 C 413.271 166.764, 411.821 172.634, 396.630 226.809 C 387.484 259.429, 380 287.235, 380 288.599 C 380 292.687, 383.430 297.971, 392.705 308.173 C 397.542 313.493, 402.313 319.230, 403.306 320.921 L 405.111 323.997 365.806 323.749 C 327.268 323.505, 317.985 324.008, 318.015 326.338 C 318.064 330.006, 318.356 330.026, 368.876 329.760 L 418.123 329.500 414.233 323.500 C 412.093 320.200, 405.950 313, 400.580 307.500 C 391.055 297.742, 387.066 291.790, 387.022 287.265 C 387.002 285.193, 400.603 232.692, 408.593 204 C 412.562 189.745, 418.052 172.719, 418.526 173.193 C 418.814 173.481, 449.950 284.821, 451.515 291.162 C 452.121 293.613, 451.295 294.517, 441.155 302.512 C 435.096 307.289, 429.896 311.829, 429.600 312.599 C 429.145 313.787, 435.457 314, 471.031 314 C 494.114 314, 513 313.709, 513 313.353 C 513 311.728, 505.233 303.501, 498.520 298.016 C 494.454 294.694, 490.786 290.968, 490.369 289.738 C 489.083 285.936, 489.772 275.960, 492.043 265.500 C 497.377 240.943, 523.035 147.933, 534.526 111.500 C 549.467 64.130, 558.795 44.624, 578.043 20.494 C 587.734 8.346, 591.988 2.327, 591.996 0.750 C 592.005 -0.963, 588.519 0.545, 569 10.702 M 904.500 6.484 C 893.129 9.502, 848.088 24.663, 811 37.957 L 782.500 48.172 774.377 47.704 C 765.001 47.165, 758.533 45.039, 708.500 26.047 C 683.360 16.504, 658.309 8, 655.338 8 C 655.164 8, 654.905 26.769, 654.761 49.708 L 654.500 91.417 638.500 96.531 C 629.700 99.344, 621.487 102.283, 620.250 103.063 L 618 104.481 618 222.741 L 618 341 624.337 341 C 631.070 341, 647.312 335.760, 726.408 308.067 C 743.958 301.923, 763.740 295.263, 770.368 293.267 L 782.420 289.638 791.460 291.926 C 796.432 293.184, 828.850 303.578, 863.500 315.022 C 898.150 326.466, 931 337.024, 936.500 338.484 C 942 339.944, 947.289 341.363, 948.254 341.638 C 949.920 342.112, 949.996 336.277, 949.754 225.421 L 949.500 108.704 934.500 103.602 L 919.500 98.500 918.888 78 C 918.551 66.725, 918.214 46.333, 918.138 32.684 C 918.003 8.452, 917.464 3.940, 914.715 4.048 C 914.047 4.074, 909.450 5.170, 904.500 6.484 M 599.347 13.995 C 595.574 15.517, 581.704 34.810, 570.958 53.482 C 553.601 83.642, 542.996 114.774, 516.107 214.500 C 510.027 237.050, 503.241 261.539, 501.026 268.919 C 495.059 288.808, 494.705 287.306, 509.390 304.353 C 516.205 312.264, 522.557 319.920, 523.505 321.368 L 525.230 324 481.115 324 C 456.852 324, 437 324.204, 437 324.453 C 437 324.702, 437.522 326.052, 438.161 327.453 L 439.321 330 489.220 330 C 528.861 330, 538.968 329.743, 538.389 328.750 C 535.032 322.996, 530.011 316.882, 520.877 307.426 C 509.416 295.562, 504 288.094, 504 284.156 C 504 281.702, 529.261 188.313, 539.613 152.500 C 555.467 97.648, 568.149 66.639, 583.987 44 C 599.040 22.483, 603.010 16.377, 603.005 14.750 C 602.999 12.817, 602.515 12.717, 599.347 13.995 M 848.130 35.291 L 788.760 55.473 794.130 57.829 C 805.767 62.934, 877.051 86.161, 901.750 92.896 L 909 94.873 909 54.936 C 909 32.971, 908.663 15.024, 908.250 15.054 C 907.837 15.084, 880.784 24.191, 848.130 35.291 M 1206 28.579 C 1175.550 31.884, 1146.423 40.280, 1120.500 53.224 C 1054.962 85.950, 1014.502 146.844, 1003.378 229.500 C 1001.204 245.650, 1000.877 289.929, 1002.809 306.500 C 1010.464 372.172, 1038.316 425.203, 1082.697 458.615 C 1112.791 481.269, 1149.976 495.442, 1195.500 501.606 C 1211.830 503.817, 1256.429 504.140, 1275 502.182 C 1302.922 499.237, 1333.517 492.745, 1358.673 484.425 C 1382.458 476.559, 1387.841 473.003, 1392.155 462.312 L 1394.500 456.500 1394.500 356.500 C 1394.500 262.847, 1394.385 256.128, 1392.691 250.643 C 1390.460 243.420, 1383.610 236.071, 1377.384 234.222 C 1374.288 233.303, 1353.060 233, 1291.711 233 L 1210.154 233 1207.085 236.069 C 1201.828 241.326, 1200.497 247.897, 1200.518 268.500 C 1200.538 288.907, 1201.969 296.123, 1206.994 301.148 L 1209.846 304 1254.923 304 L 1300 304 1300 357.877 L 1300 411.754 1294.750 414.015 C 1278.196 421.143, 1265.555 423.931, 1246.376 424.685 C 1178.310 427.358, 1128.014 393.363, 1107.619 330.900 C 1096.837 297.876, 1095.105 249.111, 1103.529 215.723 C 1111.701 183.336, 1128.408 154.404, 1148.762 137.392 C 1177.720 113.189, 1211.297 102.697, 1254.500 104.350 C 1272.674 105.045, 1284.652 106.770, 1300.500 110.975 C 1323.715 117.134, 1341.272 124.233, 1364.271 136.758 C 1380.336 145.507, 1384.567 146.367, 1388.581 141.700 C 1393.376 136.126, 1394.500 129.443, 1394.500 106.500 C 1394.500 73.760, 1392.395 68.387, 1375.251 57.365 C 1353.254 43.224, 1313.241 31.683, 1273.500 28.016 C 1258.404 26.624, 1221.155 26.934, 1206 28.579 M 1664 27.668 C 1641.158 29.936, 1620.748 34.051, 1604 39.765 C 1539.714 61.699, 1496.065 110.792, 1477.981 181.500 C 1470.550 210.558, 1467.998 233.029, 1468.003 269.379 C 1468.021 395.106, 1510.600 467.710, 1599.409 493.446 C 1624.109 500.603, 1646.874 503.341, 1682 503.377 C 1710.642 503.406, 1723.351 502.199, 1744.749 497.415 C 1798.270 485.450, 1839.884 456.396, 1867.762 411.530 C 1884.706 384.261, 1896.922 345.670, 1901.640 304.500 C 1903.778 285.846, 1904.069 237.718, 1902.160 218.500 C 1889.287 88.915, 1819.822 26.267, 1690 27.165 C 1677.625 27.250, 1665.925 27.476, 1664 27.668 M 2148.500 28.513 C 2119.326 31.907, 2096.721 38.253, 2073.500 49.568 C 2051.611 60.234, 2036.648 71.177, 2020.151 88.586 C 1992.447 117.820, 1974.909 154.775, 1966.088 202.500 C 1958.987 240.920, 1958.966 298.322, 1966.036 339.726 C 1973.338 382.483, 1988.605 417.649, 2011.343 444.085 C 2035.429 472.089, 2074.027 492.003, 2118.500 499.370 C 2145.941 503.916, 2190.093 504.976, 2214 501.662 C 2263.017 494.868, 2300.610 477.796, 2330.788 448.625 C 2366.971 413.649, 2387.628 366.500, 2394.588 303 C 2396.658 284.118, 2396.967 238.457, 2395.150 220 C 2390.355 171.291, 2378.710 134.059, 2359.149 104.893 C 2329.109 60.102, 2286.820 36.652, 2222.289 29 C 2202.621 26.668, 2166.418 26.429, 2148.500 28.513 M 5809.500 28.535 C 5700.410 40.464, 5626.559 109.708, 5608.496 217 C 5598.205 278.130, 5605.869 342.030, 5629.131 389.055 C 5649.722 430.678, 5679.406 460.023, 5720.916 479.793 C 5773.504 504.838, 5844.918 510.651, 5918.433 495.870 C 5946.197 490.288, 5979.609 479.451, 5987.416 473.496 C 5992.471 469.640, 5995.831 462.593, 5997.074 453.238 C 5997.737 448.248, 5997.990 411.581, 5997.785 350 C 5997.483 258.992, 5997.378 254.266, 5995.567 249.535 C 5993.144 243.209, 5985.604 235.539, 5980.381 234.089 C 5977.751 233.359, 5950.224 233.017, 5895 233.028 C 5805.030 233.046, 5811.732 232.574, 5807.553 239.184 C 5803.393 245.765, 5801.708 271.863, 5804.451 287.246 C 5805.872 295.217, 5808.783 301.279, 5812.024 303.013 C 5813.160 303.621, 5831.188 304, 5858.934 304 L 5904 304 5904 357.480 L 5904 410.959 5900.250 412.857 C 5876.467 424.892, 5839.154 428.335, 5808 421.370 C 5782.517 415.673, 5761.089 404.283, 5744.441 387.586 C 5718.797 361.867, 5705.052 327.534, 5701.839 281.174 C 5699.263 244.005, 5704.973 210.670, 5718.935 181.370 C 5732.600 152.695, 5752.335 132.678, 5780.500 118.926 C 5799.829 109.488, 5817.147 105.339, 5841.500 104.313 C 5882.716 102.576, 5924.801 113.360, 5967 136.472 C 5980.551 143.894, 5984.760 145.424, 5988.106 144.145 C 5994.961 141.524, 5997.155 134.166, 5997.750 111.801 C 5998.752 74.154, 5994.818 65.694, 5970.299 52.767 C 5947.484 40.737, 5911.517 31.247, 5876.500 28.016 C 5861.567 26.639, 5824.194 26.928, 5809.500 28.535 M 7171.500 27.588 C 7169.850 27.814, 7164.225 28.479, 7159 29.065 C 7101.617 35.501, 7048.707 61.655, 7014.961 100.266 C 6970.042 151.659, 6950.280 225.924, 6959.566 308.438 C 6965.640 362.416, 6986.405 408.536, 7019.475 441.500 C 7062.759 484.646, 7126.153 506.063, 7203.500 503.670 C 7243.916 502.420, 7279.585 496.167, 7316.492 483.860 C 7339.505 476.187, 7344.936 472.427, 7348.742 461.532 C 7350.374 456.859, 7350.500 449.287, 7350.500 355.500 C 7350.500 258.829, 7350.419 254.290, 7348.609 249.596 C 7346.237 243.449, 7340.712 237.239, 7335.500 234.866 C 7331.735 233.151, 7326.662 233.043, 7249.327 233.022 L 7167.153 233 7164.187 235.496 C 7159.994 239.024, 7158.071 244.648, 7156.755 257.226 C 7155.903 265.383, 7155.899 271.024, 7156.742 279.456 C 7157.968 291.723, 7159.659 296.989, 7163.740 301.250 L 7166.374 304 7211.687 304 L 7257 304 7257 357.557 L 7257 411.114 7249.378 414.587 C 7221.160 427.446, 7180.805 428.521, 7146.500 417.326 C 7114.615 406.922, 7090.640 386.497, 7074.223 355.752 C 7059.448 328.083, 7052.402 289.177, 7055.043 249.842 C 7058.069 204.771, 7072.222 170.588, 7098.905 143.905 C 7121.951 120.859, 7148.355 108.691, 7183.500 104.918 C 7196.280 103.546, 7221.921 104.275, 7235.500 106.395 C 7262.352 110.588, 7292.913 121.446, 7320 136.416 C 7336.377 145.467, 7340.725 146.311, 7345.224 141.315 C 7350.079 135.922, 7352.429 117.107, 7350.979 95.236 C 7349.583 74.188, 7346.423 67.436, 7334.028 59.019 C 7313.969 45.397, 7283.691 35.550, 7243 29.416 C 7233.013 27.910, 7179.191 26.534, 7171.500 27.588 M 2921.500 32.977 C 2909.259 33.490, 2905.631 33.997, 2901.777 35.735 C 2892.920 39.727, 2891.396 45.658, 2894.898 62.500 C 2895.927 67.450, 2920.466 162.625, 2949.430 274 C 2985.958 414.466, 3002.985 478.338, 3005.010 482.500 C 3009.532 491.794, 3015.217 494.630, 3033.974 496.951 C 3044.960 498.311, 3092.082 498.307, 3103.026 496.946 C 3121.379 494.664, 3128.604 490.293, 3132.696 479 C 3133.793 475.975, 3150.386 407.653, 3169.571 327.174 C 3191.795 233.947, 3204.722 181.510, 3205.196 182.674 C 3205.605 183.678, 3222.560 250.425, 3242.873 331 C 3263.187 411.575, 3280.579 479.423, 3281.521 481.773 C 3286.910 495.206, 3302.023 498.625, 3351.971 497.710 C 3399.402 496.840, 3405.620 494.185, 3412.392 471.911 C 3415.113 462.960, 3515.598 80.959, 3519.110 66.214 C 3522.006 54.055, 3522.132 44.035, 3519.435 40.334 C 3515.574 35.033, 3510.993 33.652, 3495 32.964 C 3472.833 32.010, 3449.800 33.339, 3442.773 35.977 C 3435.746 38.614, 3433.558 41.468, 3431.104 51.190 C 3430.089 55.211, 3411.550 136.272, 3389.905 231.326 C 3368.260 326.381, 3350.347 403.556, 3350.099 402.826 C 3349.850 402.097, 3329.789 321.557, 3305.520 223.849 C 3271.115 85.336, 3260.860 45.419, 3258.972 42.664 C 3253.520 34.707, 3244.312 32.883, 3209.461 32.855 C 3176.209 32.829, 3165.317 34.914, 3160.293 42.269 C 3157.342 46.589, 3158.674 41.238, 3112.938 232.500 C 3090.843 324.900, 3072.463 400.833, 3072.092 401.240 C 3071.722 401.648, 3053.057 321.773, 3030.614 223.740 C 3008.171 125.708, 2989.064 43.925, 2988.154 42 C 2986.013 37.470, 2979.815 34.313, 2971.686 33.612 C 2960.421 32.640, 2936.717 32.340, 2921.500 32.977 M 3621.500 33.074 C 3604.016 33.922, 3593.998 36.645, 3590.092 41.610 L 3588 44.270 3588 264.685 C 3588 510.387, 3587.325 489.061, 3595.223 492.843 C 3602.716 496.431, 3612.072 497.500, 3636 497.500 C 3660.141 497.500, 3669.890 496.178, 3676.820 491.963 C 3683.496 487.903, 3683.044 505.280, 3682.759 263.591 L 3682.500 44.161 3680 41.485 C 3676.280 37.504, 3673.076 36.177, 3663.324 34.580 C 3652.653 32.832, 3637.646 32.291, 3621.500 33.074 M 3815.362 33.034 C 3794.579 34.255, 3785.032 37.717, 3782.986 44.773 C 3782.223 47.405, 3781.993 111.220, 3782.203 262 L 3782.500 475.500 3784.799 480.488 C 3787.735 486.858, 3790.289 489.556, 3796.500 492.849 L 3801.500 495.500 3912.267 495.767 C 4035.502 496.064, 4027.177 496.523, 4030.867 489.229 C 4036.491 478.111, 4037.587 445.362, 4032.896 428.547 C 4032.290 426.373, 4030.310 423.110, 4028.497 421.297 L 4025.200 418 3951.100 418 L 3877 418 3877 231.950 C 3877 26.618, 3877.493 41.859, 3870.733 38.361 C 3865.631 35.721, 3858.204 34.054, 3849 33.482 C 3831.530 32.396, 3827.205 32.338, 3815.362 33.034 M 4124.500 33.026 C 4103.615 34.186, 4093.385 37.587, 4091.104 44.130 C 4089.603 48.438, 4089.549 463.626, 4091.049 472.871 C 4092.409 481.252, 4095.130 486.357, 4100.191 490.023 C 4108.773 496.240, 4103.838 496, 4223.034 496 L 4331.704 496 4334.989 493.750 C 4339.126 490.916, 4341.592 484.754, 4342.962 473.830 C 4344.976 457.769, 4343.727 435.358, 4340.348 426.912 C 4339.486 424.756, 4337.445 421.869, 4335.813 420.496 L 4332.847 418 4258.923 418 L 4185 418 4185 231.465 C 4185 59.872, 4184.868 44.728, 4183.352 42.414 C 4180.097 37.447, 4170.625 34.292, 4156.500 33.471 C 4151.550 33.183, 4145.025 32.816, 4142 32.654 C 4138.975 32.492, 4131.100 32.660, 4124.500 33.026 M 4432.500 33.081 C 4413.742 34.037, 4406.040 36.092, 4401 41.486 L 4398.500 44.161 4398.500 258.831 C 4398.500 427.438, 4398.768 474.379, 4399.747 477.596 C 4401.792 484.311, 4406.229 489.475, 4412.677 492.641 L 4418.500 495.500 4529 495.745 C 4616.248 495.938, 4640.020 495.724, 4641.970 494.730 C 4649.152 491.069, 4651.507 481.353, 4651.480 455.500 C 4651.457 433.412, 4650.139 426.939, 4644.520 421.320 L 4641.200 418 4567.100 418 L 4493 418 4493 231.016 L 4493 44.032 4490.250 41.132 C 4488.738 39.538, 4485.670 37.542, 4483.434 36.698 C 4474.885 33.471, 4453.982 31.987, 4432.500 33.081 M 4850.500 33.061 C 4827.146 34.169, 4822.188 35.713, 4816.820 43.548 C 4814.225 47.336, 4672.614 453.449, 4667.912 470.587 C 4666.798 474.650, 4665.868 480.243, 4665.847 483.016 C 4665.750 495.479, 4672.862 497.938, 4709 497.938 C 4738.546 497.938, 4749.280 495.797, 4754.275 488.908 C 4755.309 487.482, 4763.036 464.982, 4771.446 438.908 L 4786.737 391.500 4873.319 391.244 L 4959.901 390.989 4975.913 439.766 C 4985.967 470.393, 4992.694 489.368, 4993.992 490.761 C 4999.458 496.628, 5008.770 498.012, 5042.474 497.969 C 5077.014 497.925, 5085.126 496.525, 5088.483 490.033 C 5090.511 486.112, 5090.398 482.962, 5087.874 472.940 C 5086.192 466.265, 4949.399 72.073, 4941.047 49.833 C 4935.682 35.548, 4929.549 33.528, 4889 32.695 C 4877.175 32.452, 4859.850 32.617, 4850.500 33.061 M 6125.500 33.026 C 6106.427 34.085, 6098.253 36.320, 6094.088 41.615 L 6092 44.270 6092 194.915 C 6092 324.554, 6092.215 347.295, 6093.541 358.008 C 6096.448 381.489, 6101.464 399.545, 6110.066 417.500 C 6133.331 466.056, 6177.569 494.124, 6243.500 502.161 C 6257.025 503.810, 6297.744 503.791, 6311.500 502.129 C 6374.329 494.539, 6418.802 468.248, 6444.862 423.290 C 6456.064 403.965, 6463.349 380.230, 6467.203 350.500 C 6469.149 335.492, 6469.098 46.423, 6467.149 42.780 C 6464.806 38.399, 6458.279 35.706, 6444.651 33.496 C 6442.535 33.153, 6432.185 32.884, 6421.651 32.898 C 6394.714 32.933, 6381.273 35.602, 6377.270 41.711 C 6375.603 44.255, 6375.469 53.140, 6374.974 194.956 C 6374.498 330.959, 6374.285 346.224, 6372.771 353 C 6365.682 384.705, 6350.826 405.254, 6326.446 417.076 C 6306.070 426.957, 6276.409 429.299, 6251.388 423.004 C 6241.643 420.553, 6227.380 413.580, 6219.778 407.552 C 6202.375 393.752, 6190.569 369.885, 6187.104 341.500 C 6186.353 335.350, 6186.005 287.350, 6186.003 189.899 C 6186.001 89.693, 6185.676 46.370, 6184.912 44.176 C 6184.303 42.429, 6182.309 40.118, 6180.386 38.930 C 6173.871 34.903, 6168.640 34.025, 6143 32.654 C 6139.975 32.492, 6132.100 32.660, 6125.500 33.026 M 6693.500 33.008 C 6674.945 33.825, 6671.357 34.360, 6665.808 37.135 C 6661.014 39.532, 6657.884 43.853, 6654.675 52.500 C 6646.811 73.694, 6510.993 466.562, 6509.628 472.064 C 6506.609 484.235, 6508.012 491.404, 6514.021 494.511 C 6518.660 496.910, 6529.757 497.938, 6551 497.938 C 6580.577 497.938, 6591.278 495.799, 6596.293 488.885 C 6597.336 487.446, 6605.086 464.946, 6613.516 438.885 L 6628.843 391.500 6715.528 391.500 L 6802.213 391.500 6818.011 439.846 C 6835.584 493.622, 6835.161 492.746, 6844.972 495.787 C 6849.727 497.260, 6855.186 497.500, 6884 497.500 C 6919.596 497.500, 6923.469 497.082, 6928.582 492.683 C 6932.471 489.338, 6932.781 483.533, 6929.688 471.955 C 6926.859 461.365, 6785.210 54.389, 6781.575 46.409 C 6778.075 38.726, 6772.867 35.714, 6760.332 34.126 C 6749.245 32.721, 6713.567 32.124, 6693.500 33.008 M 5466.819 34.080 C 5457.314 35.086, 5448.383 38.555, 5445.591 42.323 L 5443.500 45.147 5443.500 173.823 C 5443.500 244.595, 5443.809 316.900, 5444.188 334.500 C 5444.566 352.100, 5444.506 365.600, 5444.055 364.500 C 5440.779 356.516, 5411.458 295.940, 5401.218 276 C 5380.012 234.709, 5290.336 66.344, 5286.354 60.346 C 5281.025 52.318, 5272.906 44.757, 5265.701 41.114 C 5254.485 35.441, 5248.961 34.875, 5208.096 35.205 C 5173.159 35.487, 5171.290 35.597, 5166.878 37.637 C 5161.044 40.335, 5154.402 46.291, 5152.019 50.964 C 5151.009 52.943, 5149.691 57.219, 5149.091 60.465 C 5148.325 64.608, 5148 128.639, 5148 275.216 C 5148 456.411, 5148.194 484.529, 5149.465 487.572 C 5152.411 494.622, 5165.702 498, 5190.500 498 C 5207.042 498, 5217.940 496.573, 5224.665 493.528 C 5234.056 489.275, 5233.210 507.621, 5232.583 321.821 C 5232.278 231.444, 5231.791 153.450, 5231.500 148.500 L 5230.972 139.500 5236.822 153.500 C 5251.380 188.337, 5258.998 203.381, 5327.722 333 C 5404.438 477.694, 5401.524 472.536, 5412.321 482.737 C 5424.661 494.396, 5430.637 495.965, 5465.500 496.698 C 5493.174 497.280, 5502.237 496.542, 5510.408 493.039 C 5516.648 490.365, 5523.369 483.201, 5526.189 476.221 L 5528.500 470.500 5528.500 257.823 L 5528.500 45.147 5526.448 42.323 C 5523.193 37.845, 5516.662 35.230, 5505.789 34.052 C 5494.801 32.862, 5478.208 32.873, 5466.819 34.080 M 2493.826 35.979 C 2484.622 38.758, 2477.969 45.999, 2476.036 55.344 C 2474.345 63.518, 2475.098 474.278, 2476.813 479.277 C 2478.606 484.503, 2483.379 489.632, 2489.410 492.814 L 2494.500 495.500 2569 495.473 C 2646.797 495.444, 2658.793 494.925, 2684.608 490.469 C 2785.440 473.064, 2841.651 413.077, 2855.591 308 C 2857.746 291.753, 2858.642 243.545, 2857.091 227.324 C 2852.114 175.295, 2835.863 134.087, 2807.561 101.729 C 2780.016 70.235, 2738.534 48.663, 2689 40.070 C 2663.252 35.604, 2648.756 34.995, 2570.376 35.086 C 2529.744 35.133, 2495.297 35.535, 2493.826 35.979 M 7462.144 36.698 C 7459.748 37.545, 7455.852 40.097, 7453.488 42.369 C 7445.337 50.201, 7445.949 31.190, 7446.241 267.538 L 7446.500 477.500 7448.649 481.513 C 7451.582 486.988, 7455.639 490.891, 7461 493.397 C 7465.486 495.493, 7465.886 495.501, 7586.834 495.766 L 7708.169 496.031 7711.487 492.713 C 7716.207 487.993, 7718.022 481.018, 7718.697 465 C 7719.296 450.775, 7717.951 436.212, 7715.494 430.332 C 7714.733 428.510, 7712.981 425.890, 7711.600 424.510 L 7709.091 422 7624.545 422 L 7540 422 7540 357.500 L 7540 293 7609.032 293 C 7684.199 293, 7682.647 293.113, 7686.748 287.354 C 7690.588 281.961, 7691.442 276.463, 7691.462 257 C 7691.487 231.763, 7688.885 223.451, 7680.205 221.040 C 7677.833 220.381, 7651.942 220.009, 7608.250 220.006 L 7540 220 7540 164.500 L 7540 109 7623.365 109 C 7718.345 109, 7709.660 109.866, 7713.918 99.968 C 7716.673 93.566, 7717.941 76.949, 7716.903 60.853 C 7716.093 48.297, 7714.265 41.930, 7710.274 37.764 L 7707.626 35 7587.063 35.079 C 7481.197 35.148, 7465.969 35.346, 7462.144 36.698 M 701 85.402 L 627.500 109.638 627.246 220.216 L 626.991 330.794 643.746 325.398 C 652.961 322.430, 686.375 311.528, 718 301.170 L 775.500 282.340 775.754 171.670 C 775.894 110.801, 775.669 61.037, 775.254 61.083 C 774.839 61.128, 741.425 72.072, 701 85.402 M 94.334 66.481 C 60.170 72.680, 30.167 95.862, 14.108 128.467 C 4.790 147.385, 1.060 162.940, 0.299 186.045 C -0.548 211.790, 3.160 230.286, 13.423 251.500 C 22.080 269.396, 31.971 282.036, 46.271 293.477 C 65.267 308.676, 80.138 312.690, 126 314.998 C 148.088 316.110, 224.289 315.386, 226.825 314.040 C 227.732 313.559, 224.679 310.246, 217.162 303.554 L 206.174 293.772 205.817 248.636 C 205.620 223.811, 205.814 202.085, 206.248 200.355 C 206.785 198.214, 210.298 194.094, 217.268 187.435 C 226.538 178.577, 229.864 174.751, 229.965 172.824 C 229.984 172.452, 199.662 172.002, 162.583 171.824 C 125.503 171.646, 94.839 171.173, 94.440 170.774 C 93.183 169.516, 95.935 167.235, 99.523 166.562 C 101.422 166.205, 103.431 165.063, 103.988 164.023 C 105.462 161.268, 105.226 153.338, 103.575 150.145 C 99.739 142.727, 85.406 143.583, 79.094 151.607 C 73.623 158.563, 74.186 169.898, 80.323 176.355 C 87.809 184.230, 100.975 186.361, 138.988 185.850 L 167 185.473 167 190.099 L 167 194.726 146.750 195.222 C 116.003 195.974, 99.754 194.245, 87.250 188.891 C 83.240 187.174, 83 187.169, 83 188.813 C 83 193.608, 89.369 197.879, 100.729 200.702 C 106.019 202.016, 112.202 202.384, 129 202.384 C 140.825 202.384, 154.213 202.042, 158.750 201.623 L 167 200.863 167 238.274 C 167 258.851, 166.706 281.157, 166.346 287.843 L 165.693 300 150.020 300 C 114.597 300, 95.311 295.639, 80 284.168 C 64.192 272.325, 52.536 249.926, 47.389 221.500 C 44.867 207.574, 44.823 172.577, 47.311 159 C 51.786 134.575, 59.442 117.083, 71.137 104.560 C 84.472 90.282, 98.011 83.989, 117 83.244 C 136.249 82.489, 149.231 87.233, 161.608 99.548 C 170.075 107.971, 173.489 114.553, 177.854 130.864 C 179.527 137.115, 181.096 142.429, 181.340 142.674 C 181.585 142.919, 184.701 137.580, 188.264 130.810 C 200.043 108.426, 217.155 75, 216.825 75.020 C 216.646 75.030, 212.900 75.690, 208.500 76.485 C 192.976 79.290, 179.172 78.097, 151.293 71.540 C 123.652 65.040, 109.301 63.765, 94.334 66.481 M 218.545 93.357 C 216.080 98.385, 210.009 110.150, 205.053 119.500 C 197.346 134.039, 192 146.201, 192 149.194 C 192 149.637, 193.080 150, 194.401 150 C 197.039 150, 195.473 152.881, 217.160 108.136 C 223.122 95.835, 228 85.485, 227.999 85.136 C 227.999 84.786, 226.880 84.435, 225.512 84.357 C 223.330 84.231, 222.479 85.329, 218.545 93.357 M 114.500 91.698 C 93.705 94.456, 77.422 108.322, 67.594 131.642 C 59.368 151.161, 57.493 162.411, 57.533 192 C 57.563 213.461, 57.841 217.753, 59.773 226.604 C 65.997 255.118, 77.155 275.668, 91.875 285.727 C 95.381 288.123, 98.493 289.840, 98.790 289.543 C 99.088 289.246, 96.406 285.965, 92.832 282.251 C 76.329 265.107, 70.087 251.030, 65.451 220.500 C 63.436 207.234, 63.150 178.257, 64.913 166.120 C 69.691 133.241, 82.042 111.544, 101.097 102.555 C 117.918 94.619, 129.835 95.562, 151.802 106.566 C 159.118 110.231, 165.319 113.015, 165.581 112.752 C 165.843 112.490, 163.522 109.739, 160.422 106.639 C 149.182 95.399, 131.057 89.502, 114.500 91.698 M 1673 104.674 C 1648.363 107.167, 1630.777 114.031, 1614.526 127.496 C 1602.572 137.401, 1594.422 147.387, 1587.184 161 C 1573.202 187.295, 1566.982 219.374, 1567.017 265 C 1567.053 312.411, 1573.108 346.339, 1586.202 372.500 C 1596.726 393.528, 1613.480 409.253, 1634.033 417.397 C 1650.719 424.008, 1675.716 427.106, 1696.760 425.170 C 1719.720 423.058, 1731.107 419.601, 1746.689 410.012 C 1772.930 393.863, 1791.315 364.774, 1798.918 327.380 C 1803.183 306.401, 1804.359 292.733, 1804.371 264 C 1804.391 215.839, 1798.835 184.700, 1785.560 158.572 C 1769.336 126.642, 1742.913 109.130, 1704.789 105.042 C 1695.629 104.059, 1680.776 103.887, 1673 104.674 M 2166 104.674 C 2147.968 106.499, 2132.584 111.049, 2120.822 118.036 C 2093.845 134.063, 2075.843 159.834, 2067.058 195 C 2061.509 217.216, 2059.574 239.939, 2060.303 274.350 C 2061.632 337.099, 2072.475 372.921, 2097.944 398.700 C 2120.022 421.048, 2161.600 430.751, 2204.077 423.469 C 2242.917 416.810, 2272.883 388.986, 2286.467 346.966 C 2294.154 323.189, 2297.268 299.489, 2297.305 264.500 C 2297.331 238.854, 2296.334 225.259, 2292.925 204.823 C 2282.771 143.939, 2251.140 110.764, 2197.789 105.042 C 2188.629 104.059, 2173.776 103.887, 2166 104.674 M 2569 265 L 2569 421 2595.750 420.998 C 2610.463 420.996, 2628.575 420.542, 2636 419.987 C 2674.549 417.109, 2701.112 406.104, 2722.046 384.337 C 2734.291 371.606, 2741.600 359.735, 2748.529 341.327 C 2762.109 305.249, 2764.426 246.230, 2753.895 204.652 C 2741.419 155.392, 2708.718 123.284, 2661 113.440 C 2645.062 110.153, 2628.280 109, 2596.355 109 L 2569 109 2569 265 M 855.518 126.320 C 842.561 157.495, 810.046 237.376, 810.239 237.559 C 810.647 237.945, 831.415 243.927, 831.564 243.701 C 831.637 243.590, 833.628 238.438, 835.988 232.250 C 838.347 226.063, 840.787 221, 841.409 221 C 843.075 221, 855.749 224.571, 870.173 229.105 C 881.382 232.627, 883.260 233.545, 886.423 237.047 C 888.390 239.224, 890.001 241.117, 890.001 241.253 C 890.022 245.007, 893.493 259.181, 894.836 261 C 897.844 265.072, 916.091 271.368, 914.810 267.892 C 914.528 267.126, 906.018 235.716, 895.899 198.091 L 877.500 129.682 873.418 127.869 C 871.173 126.871, 866.525 125.399, 863.088 124.598 L 856.839 123.140 855.518 126.320 M 4872 124.319 C 4872 124.678, 4857.827 168.255, 4840.505 221.158 C 4823.183 274.060, 4809.162 317.495, 4809.346 317.679 C 4809.531 317.864, 4838.250 317.899, 4873.168 317.757 L 4936.654 317.500 4904.833 221.090 C 4887.332 168.064, 4872.785 124.451, 4872.506 124.173 C 4872.228 123.894, 4872 123.960, 4872 124.319 M 6682.720 220.720 C 6665.313 273.896, 6651.208 317.541, 6651.376 317.709 C 6651.544 317.877, 6680.274 317.899, 6715.221 317.757 L 6778.761 317.500 6746.946 221.149 C 6729.447 168.155, 6714.959 124.626, 6714.750 124.416 C 6714.540 124.207, 6700.127 167.544, 6682.720 220.720 M 694.500 130.953 C 689.550 131.934, 683.362 133.049, 680.750 133.430 C 678.113 133.814, 676.010 134.651, 676.022 135.311 C 676.084 138.646, 680.110 145.007, 683.171 146.605 C 693.484 151.988, 713.037 144.670, 715.597 134.469 C 717.056 128.655, 711.099 127.662, 694.500 130.953 M 734.500 146.934 C 731.750 147.918, 723.076 151.485, 715.224 154.861 C 706.730 158.514, 693.124 163.208, 681.630 166.451 C 657.918 173.140, 657 173.532, 657 176.972 C 657 182.966, 665.297 186.574, 672.328 183.636 C 674.298 182.813, 679.372 180.038, 683.604 177.469 C 687.836 174.900, 694.269 171.677, 697.900 170.308 C 704.829 167.694, 718.935 164.602, 719.833 165.500 C 721.278 166.945, 710.242 189.113, 699.173 207 C 686.480 227.509, 675.201 242.882, 660.650 259.500 C 655.352 265.550, 651.014 271.015, 651.009 271.645 C 650.996 273.363, 657.477 271.635, 661.528 268.840 C 664.939 266.487, 697.784 227.322, 701.811 220.806 C 702.998 218.885, 705.264 215.685, 706.846 213.693 L 709.723 210.073 714.112 212.877 C 716.525 214.420, 722.100 218.277, 726.500 221.449 C 737.438 229.335, 753.298 237, 758.676 237 C 762.015 237, 756.364 224.802, 751.710 221.964 C 749.944 220.888, 744.225 218.592, 739 216.862 C 726.870 212.846, 714 206.459, 714 204.456 C 714 202.245, 718.170 194.308, 727.251 179.231 C 734.777 166.736, 740.956 152.349, 740.987 147.250 C 741.002 144.614, 740.990 144.613, 734.500 146.934 M 865.696 161.683 C 864.551 163.536, 850.007 197.377, 849.764 198.753 C 849.566 199.876, 853.170 201.304, 864.250 204.492 C 872.362 206.827, 878.999 208.459, 878.998 208.119 C 878.995 207.080, 866.918 161.584, 866.547 161.213 C 866.356 161.023, 865.973 161.234, 865.696 161.683 M 233.453 181.866 C 229.547 184.247, 220.619 194.191, 217.171 200 L 214.500 204.500 214.500 248.500 C 214.500 289.542, 214.626 292.754, 216.378 296.280 C 217.411 298.360, 222.468 304.566, 227.615 310.071 C 232.762 315.577, 237.454 320.980, 238.042 322.078 C 239.106 324.066, 238.811 324.073, 166.805 323.720 C 96.695 323.377, 94.199 323.299, 84.598 321.169 C 79.151 319.960, 74.509 319.157, 74.282 319.385 C 73.281 320.385, 81.469 325.356, 86.904 327.047 C 99.076 330.835, 110.031 331.211, 182.692 330.335 L 251.884 329.500 236.442 311.544 L 221 293.587 221.007 248.544 C 221.014 196.841, 220.058 202.046, 231.478 191.533 C 235.550 187.784, 238.120 184.595, 238.265 183.110 C 238.575 179.961, 237.172 179.598, 233.453 181.866 M 854 342.525 C 854 342.814, 855.626 346.278, 857.613 350.224 L 861.226 357.399 858.863 359.314 C 855.078 362.382, 838.262 370.498, 828.688 373.877 C 811.846 379.822, 801.699 381.397, 780 381.437 C 750.944 381.489, 735.562 378.075, 709.512 365.793 C 701.255 361.900, 692.610 358.498, 690.300 358.233 C 686.374 357.783, 686.055 357.933, 685.400 360.544 C 684.471 364.245, 686.495 365.859, 700.500 372.583 C 714.222 379.171, 728.380 384.089, 743.117 387.388 C 782.438 396.189, 816.329 391.449, 855.730 371.640 C 860.807 369.088, 865.381 367, 865.895 367 C 866.409 367, 868.528 369.363, 870.603 372.250 C 872.678 375.137, 874.517 377.687, 874.688 377.917 C 874.860 378.146, 875.244 378.089, 875.542 377.791 C 876.309 377.024, 887 346.939, 887 345.547 C 887 344.788, 881.994 343.989, 872.250 343.192 C 855.728 341.841, 854 341.777, 854 342.525 M 135.460 365.250 C 135.197 365.938, 135.099 397.100, 135.241 434.500 L 135.500 502.500 176.117 502.761 L 216.734 503.022 217.297 498.821 C 217.607 496.510, 217.604 492.455, 217.291 489.810 L 216.721 485 185.861 485 L 155 485 155 424.500 L 155 364 145.469 364 C 138.765 364, 135.796 364.371, 135.460 365.250 M 803.784 399.879 L 800.141 404.759 792.321 402.777 C 781.700 400.085, 767.261 399.886, 760.238 402.334 C 753.781 404.585, 745.411 411.991, 741.777 418.668 C 737.958 425.686, 736.413 435.239, 737.771 443.437 C 739.495 453.840, 742.833 459.988, 749.818 465.624 C 753.142 468.306, 755.893 470.783, 755.931 471.129 C 755.969 471.474, 754.590 472.341, 752.867 473.055 C 739.976 478.395, 736.940 492.474, 747.300 498.876 C 753.482 502.697, 759.837 503.373, 772.877 501.598 C 793.721 498.760, 798.443 499.652, 801.376 506.982 C 804.269 514.213, 803.697 516.155, 797.579 519.863 C 783.842 528.188, 772.670 527.920, 754.664 518.830 L 748.626 515.782 745.866 519.141 C 744.348 520.989, 742.314 524.243, 741.345 526.373 C 739.591 530.234, 739.593 530.252, 742.033 532.228 C 749.861 538.566, 761.875 541.964, 776.540 541.985 C 797.098 542.015, 813.136 534.564, 819.081 522.221 C 822.589 514.938, 822.339 505.175, 818.462 498.077 C 812.833 487.771, 802.943 483.313, 788.091 484.388 C 763.431 486.172, 759.543 486.212, 757.542 484.701 C 755.650 483.272, 755.699 483.154, 759 481.146 C 760.878 480.004, 766.709 478.126, 771.957 476.973 C 805.701 469.560, 816.007 460.928, 815.997 440.091 C 815.994 434.360, 813.003 420.468, 810.545 414.764 C 809.992 413.481, 810.411 412.791, 812.148 412.120 C 813.442 411.621, 815.600 410.030, 816.945 408.585 L 819.389 405.957 813.979 400.478 C 811.003 397.465, 808.312 395, 807.998 395 C 807.684 395, 805.788 397.196, 803.784 399.879 M 500.036 400.117 C 496.503 403.310, 495.043 404.029, 493.036 403.564 C 478.850 400.278, 473.334 399.698, 466.134 400.735 C 451.228 402.882, 439.107 412.166, 435.543 424.166 C 433.522 430.973, 433.579 442.842, 435.671 450.434 C 437.125 455.714, 438.279 457.430, 444.576 463.676 L 451.810 470.853 446.728 474.176 C 439.828 478.689, 437.667 481.867, 437.667 487.500 C 437.667 492.646, 439.775 496.200, 444.892 499.684 C 449.504 502.824, 456.811 503.398, 468.926 501.572 C 482.437 499.535, 488.557 499.615, 493.576 501.895 C 501.184 505.351, 501.830 512.406, 495.149 519.086 C 490.467 523.769, 484.933 525.433, 474 525.446 C 465.940 525.457, 464.979 525.212, 455.437 520.729 C 449.902 518.128, 445.115 516, 444.798 516 C 444.079 516, 436 528.812, 436 529.954 C 436 531.434, 445.299 536.774, 452 539.140 C 457.569 541.108, 460.505 541.441, 472.500 541.468 C 484.599 541.496, 487.487 541.177, 493.766 539.119 C 509.945 533.819, 517.521 524.537, 517.477 510.071 C 517.442 498.558, 512.984 491.634, 502.500 486.804 C 497.909 484.688, 496.396 484.529, 484 484.850 C 476.575 485.043, 466.450 485.268, 461.500 485.350 L 452.500 485.500 452.782 483.004 C 452.937 481.631, 453.639 479.932, 454.343 479.228 C 455.059 478.513, 461.323 477.290, 468.561 476.453 C 481.164 474.995, 488.526 473.234, 494.364 470.280 C 499.167 467.850, 506.032 460.860, 508.839 455.540 C 511.287 450.903, 511.496 449.580, 511.444 439 C 511.396 429.149, 511.019 426.531, 508.815 420.742 L 506.242 413.983 511.187 409.843 L 516.132 405.703 511.354 400.852 C 508.726 398.183, 506.108 396.018, 505.538 396.041 C 504.967 396.064, 502.491 397.898, 500.036 400.117 M 251.721 400.567 C 245.578 402.055, 235.634 406.531, 233.942 408.569 C 233.231 409.426, 233.736 411.851, 235.624 416.647 C 237.108 420.416, 238.469 423.682, 238.648 423.904 C 238.828 424.126, 242.148 422.845, 246.026 421.058 C 255.466 416.706, 263.761 415.350, 271.260 416.931 C 280.500 418.880, 284.867 424.149, 286.348 435.138 L 286.838 438.776 276.473 438.247 C 258.730 437.342, 246.782 441.075, 237.461 450.439 C 229.781 458.154, 227.543 463.573, 227.525 474.500 C 227.513 481.608, 227.956 484.446, 229.629 488 C 234.178 497.659, 244.001 503.909, 255.981 504.767 C 264.468 505.374, 271.120 503.473, 281 497.618 L 288.500 493.173 292 496.537 C 296.365 500.733, 303.122 503.750, 309 504.129 L 313.500 504.419 313.328 499.596 C 313.201 496.025, 312.523 494.089, 310.714 492.137 C 306.505 487.592, 306 484.116, 305.992 459.601 C 305.984 434.944, 305.121 426.476, 301.835 418.839 C 299.532 413.484, 293.281 407.204, 287.131 404.067 C 277.711 399.261, 263.080 397.815, 251.721 400.567 M 369.048 400.984 C 366.049 402.089, 360.928 405.065, 357.668 407.596 C 351.256 412.575, 351.233 412.572, 348.434 406.286 C 346.596 402.158, 344.325 401, 338.066 401 L 333 401 333 452 L 333 503 341.843 503 L 350.685 503 351.340 485.750 C 351.699 476.262, 351.995 458.808, 351.997 446.961 L 352 425.423 357.442 422.125 C 368.879 415.193, 380.918 413.379, 386.864 417.692 C 394.326 423.105, 396.195 434.662, 395.299 469.864 C 394.968 482.864, 395.018 495.637, 395.410 498.250 L 396.123 503 404.473 503 L 412.824 503 413.376 499.250 C 414.790 489.652, 415.077 468.713, 414.046 450.500 C 412.890 430.092, 411.301 419.405, 408.669 414.341 C 406.426 410.028, 400.237 404.296, 395.100 401.777 C 388.603 398.590, 376.539 398.223, 369.048 400.984 M 869.500 400.386 C 853.569 404.260, 839.966 418.649, 834.412 437.500 C 831.617 446.984, 832.041 461.489, 835.402 471.391 C 838.541 480.637, 843.553 488.606, 849.355 493.572 C 862.001 504.397, 881.912 507.671, 900.383 501.962 C 906.929 499.939, 916 494.727, 916 492.989 C 916 492.071, 911.331 482.135, 910.428 481.132 C 910.246 480.929, 906.069 482.394, 901.147 484.387 C 890.053 488.878, 882.373 489.832, 874.868 487.650 C 861.718 483.827, 854.538 474.289, 852.669 458.160 L 852.166 453.821 885.833 454.109 C 921.378 454.414, 922.264 454.317, 925.449 449.770 C 928.635 445.221, 926.468 430.362, 921.204 420.652 C 912.639 404.854, 889.087 395.623, 869.500 400.386 M 658.500 402.459 C 648.011 405.210, 642 407.609, 642 409.044 C 642 410.316, 646.939 422.238, 647.879 423.236 C 648.261 423.641, 652.904 422.425, 658.198 420.533 C 668.905 416.706, 676.127 415.426, 681.416 416.418 C 688.322 417.714, 694.124 424.976, 695.481 434.023 L 696.152 438.500 684.326 438.571 C 654.878 438.749, 637.490 450.876, 636.215 472.127 C 635.627 481.921, 637.764 488.703, 643.342 494.756 C 648.372 500.212, 652.846 502.554, 661.178 504.089 C 672.178 506.116, 685.909 502.409, 694.125 495.195 L 697.659 492.092 701.428 497.034 C 705.490 502.360, 708.242 503.584, 717.500 504.179 L 722.500 504.500 722.302 500.163 C 722.175 497.389, 721.247 494.685, 719.728 492.663 C 718.422 490.923, 716.974 488.600, 716.510 487.500 C 716.046 486.400, 715.358 472.450, 714.980 456.500 C 714.408 432.368, 713.991 426.661, 712.501 422.500 C 708.666 411.800, 701.313 404.358, 691.774 401.526 C 683.938 399.198, 669.374 399.607, 658.500 402.459 M 534.456 410.740 C 533.498 423.520, 534.555 469.701, 535.995 477.994 C 536.615 481.566, 537.922 486.296, 538.899 488.505 C 542.558 496.776, 552.095 503.243, 562.560 504.551 C 572.391 505.779, 586.447 501.205, 594.106 494.286 L 597.886 490.870 598.572 496.935 L 599.258 503 608.129 503 L 617 503 617 452.625 L 617 402.250 613.875 401.625 C 612.156 401.281, 608.142 401, 604.955 401 L 599.160 401 598.744 435.250 C 598.306 471.200, 597.840 475.288, 593.654 479.845 C 587.721 486.305, 576.140 490.024, 568.173 488.028 C 562.856 486.696, 559.596 484.056, 557.026 479 C 553.579 472.221, 553 465.593, 553 432.951 L 553 401 544.093 401 L 535.187 401 534.456 410.740 M 464.238 417.619 C 456.505 421.360, 453.642 425.642, 453.159 434.191 C 452.630 443.560, 454.412 449.355, 459.427 454.569 C 464.712 460.065, 470.252 461.709, 477.794 460.022 C 484.847 458.443, 489.380 453.942, 491.598 446.311 C 494.683 435.698, 491.904 424.635, 484.524 418.155 C 481.372 415.387, 480.229 415.004, 475.215 415.037 C 471.193 415.062, 467.941 415.827, 464.238 417.619 M 769 417.029 C 759.975 421.231, 756.664 426.299, 756.602 436 C 756.552 443.868, 758.205 449.025, 762.254 453.637 C 766.508 458.481, 770.570 460.323, 777 460.323 C 788.950 460.323, 796.372 451.973, 796.399 438.500 C 796.417 429.867, 792.996 421.557, 787.944 417.960 C 783.272 414.633, 775.015 414.227, 769 417.029 M 871.297 417.043 C 864.442 419.759, 857.616 426.737, 855.016 433.686 C 853.907 436.650, 853 439.283, 853 439.538 C 853 439.792, 865.327 440, 880.394 440 L 907.787 440 906.865 435.895 C 905.050 427.816, 900.169 421.148, 893.624 417.806 C 887.625 414.743, 877.937 414.411, 871.297 417.043 M 270.352 453.012 C 261.737 454.195, 254.721 457.494, 250.057 462.554 C 245.491 467.507, 244.546 470.280, 245.261 476.622 C 246.133 484.363, 252.184 489, 261.413 489 C 267.654 489, 275.358 486.427, 282.299 482.025 L 287 479.044 287 466.022 C 287 454.291, 286.827 452.999, 285.250 452.989 C 284.288 452.983, 281.925 452.796, 280 452.573 C 278.075 452.350, 273.734 452.547, 270.352 453.012 M 675.248 453.442 C 668.617 455.049, 661.592 459.387, 657.597 464.343 C 654.863 467.736, 654.500 468.929, 654.500 474.537 C 654.500 480.430, 654.751 481.147, 657.965 484.464 C 663.897 490.584, 673.459 491.439, 684.216 486.812 C 693.904 482.644, 697.671 474.488, 696.398 460.439 L 695.744 453.220 692.122 452.621 C 686.775 451.737, 681.161 452.010, 675.248 453.442" stroke="none" fill="#04047c" fill-rule="evenodd"></path></svg>